<svg width="438" height="446" viewBox="0 0 438 446" fill="none" xmlns="http://www.w3.org/2000/svg">
<path d="M212.28 141.51C302.566 141.537 354.103 141.537 366.89 141.51C371.023 141.504 373.786 139.73 375.18 136.19C375.292 135.905 375.363 135.605 375.39 135.3C376.12 127.11 373.65 118.48 369.87 111.06C361.96 95.5002 348.48 82.0602 333.91 72.3502C325.796 66.9369 318.24 62.6636 311.24 59.5302C292.066 50.9569 271.816 45.2969 250.49 42.5502C237.276 40.8502 224.55 39.9969 212.31 39.9902C200.076 39.9902 187.35 40.8369 174.13 42.5302C152.803 45.2636 132.55 50.9102 113.37 59.4702C106.37 62.5969 98.8096 66.8669 90.6896 72.2802C76.1096 81.9802 62.6296 95.4102 54.7096 110.96C50.9196 118.38 48.4496 127.01 49.1696 135.2C49.1962 135.505 49.2669 135.805 49.3796 136.09C50.773 139.63 53.5363 141.407 57.6696 141.42C70.4496 141.454 121.986 141.484 212.28 141.51Z" stroke="#F2BD93" stroke-width="2"/>
<path d="M269.919 209.02C269.946 209 269.993 208.963 270.059 208.91C270.268 208.753 270.428 208.538 270.519 208.29C272.549 202.54 273.709 193.33 270.019 188.23C268.153 185.643 266.313 183.927 264.499 183.08C259.419 180.72 244.459 178.57 241.399 186.43C239.506 191.29 240.706 195.173 244.999 198.08C245.212 198.226 245.444 198.341 245.689 198.42C247.609 199.047 249.263 199.373 250.649 199.4C251.079 199.406 251.496 199.544 251.845 199.795C252.193 200.047 252.456 200.399 252.597 200.806C252.739 201.212 252.753 201.653 252.637 202.069C252.521 202.484 252.281 202.855 251.949 203.13C248.939 205.62 243.859 204.29 240.799 202.51C234.869 199.07 234.109 188.81 235.579 183.07C237.369 176.08 243.419 171.93 250.759 173.21C253.649 173.72 257.079 176.26 259.939 176.3C268.509 176.43 272.579 167.97 268.149 161.03C267.957 160.725 267.721 160.452 267.449 160.22C263.436 156.74 258.709 154.59 253.269 153.77C250.463 153.35 247.626 153.203 244.759 153.33C237.266 153.65 230.809 156.1 225.389 160.68C215.499 169.03 213.059 183.22 214.789 195.59C215.703 202.077 218.156 207.747 222.149 212.6C233.159 226 256.639 227.38 267.799 213.03C268.159 212.563 268.369 212.15 268.429 211.79C268.509 211.337 268.763 211.013 269.189 210.82C269.309 210.768 269.41 210.68 269.476 210.569C269.542 210.457 269.572 210.328 269.559 210.2C269.553 210.153 269.546 210.08 269.539 209.98C269.524 209.8 269.55 209.62 269.616 209.453C269.682 209.286 269.786 209.138 269.919 209.02Z" stroke="#DD927E" stroke-width="2"/>
<path d="M90.7996 185.15C95.8696 180.43 96.3596 171.75 94.1596 165.58C93.0863 162.574 91.4963 160.267 89.3896 158.66C86.803 156.68 84.2396 155.417 81.6996 154.87C76.1796 153.684 68.903 153.374 59.8696 153.94C50.9096 154.5 48.8296 160.14 48.9396 168.27C49.033 175.157 49.0396 188.994 48.9596 209.78C48.933 216.774 51.8463 220.954 57.6996 222.32C58.0321 222.4 58.3738 222.447 58.7196 222.46C63.2063 222.7 69.7596 222.647 78.3796 222.3C85.2996 222.027 90.6763 219.277 94.5096 214.05C97.703 209.704 98.943 204.487 98.2296 198.4C97.6696 193.69 94.5796 188.86 90.8596 186.15C90.7824 186.094 90.7185 186.021 90.6726 185.937C90.6268 185.853 90.6 185.76 90.5943 185.664C90.5886 185.569 90.604 185.473 90.6395 185.384C90.675 185.295 90.7297 185.216 90.7996 185.15Z" stroke="#DD927E" stroke-width="2"/>
<path d="M129.36 223.15C139.66 223.15 149.65 218.74 153.77 209.08C154.87 206.487 155.383 201.037 155.31 192.73C155.257 186.563 155.237 176.997 155.25 164.03C155.26 156.47 148.69 152.09 141.58 154.24C138.667 155.12 136.633 156.947 135.48 159.72C134.767 161.453 134.443 164.25 134.51 168.11C134.523 169.09 134.523 179.613 134.51 199.68C134.509 199.912 134.479 200.14 134.42 200.36C133.84 202.67 131.93 204.54 129.37 204.54C126.81 204.54 124.91 202.66 124.33 200.35C124.271 200.13 124.241 199.902 124.24 199.67C124.253 179.603 124.27 169.08 124.29 168.1C124.357 164.24 124.037 161.443 123.33 159.71C122.177 156.937 120.143 155.107 117.23 154.22C110.13 152.06 103.55 156.43 103.55 163.99C103.543 176.957 103.51 186.523 103.45 192.69C103.363 200.997 103.87 206.447 104.97 209.04C109.07 218.72 119.06 223.14 129.36 223.15Z" stroke="#DD927E" stroke-width="2"/>
<path d="M202.8 192.26L206.01 188.99C206.103 188.897 206.187 188.793 206.26 188.68C213.95 176.23 211.14 160.92 196.56 155.61C193.153 154.37 188.967 153.743 184 153.73C176.15 153.72 167.39 152.53 163.49 159.06C162.49 160.74 161.993 164.083 162 169.09C162.013 189.763 162.053 204.4 162.12 213C162.14 215.56 163.15 217.94 165.15 220.14C166.89 222.053 169.253 223.03 172.24 223.07C176.6 223.13 179.703 221.323 181.55 217.65C183.71 213.37 182.69 205.85 182.9 200.55C182.91 200.293 182.973 200.04 183.087 199.81C183.201 199.58 183.361 199.38 183.557 199.224C183.752 199.068 183.977 198.961 184.215 198.91C184.453 198.859 184.697 198.866 184.93 198.93C185.783 199.163 186.32 199.92 186.54 201.2C188.04 209.9 194.37 226.52 206.46 222.35C209.053 221.457 210.91 219.813 212.03 217.42C214.01 213.16 212.87 208.98 209.92 205.12C206.84 201.08 204.07 197.45 202.57 193.31C202.504 193.131 202.491 192.938 202.532 192.752C202.573 192.566 202.666 192.395 202.8 192.26Z" stroke="#DD927E" stroke-width="2"/>
<path d="M297.41 175.83C297.41 175.489 297.478 175.151 297.61 174.836C297.742 174.521 297.935 174.235 298.179 173.995C298.423 173.755 298.712 173.566 299.03 173.438C299.347 173.31 299.687 173.246 300.03 173.25C307.21 173.34 314.53 174.02 317.67 169.91C319.837 167.07 320.487 163.937 319.62 160.51C318.31 155.3 312.85 153.81 307.76 153.76C299.36 153.674 293.007 153.724 288.7 153.91C282.687 154.17 278.973 157.09 277.56 162.67C277.513 162.863 277.49 163.061 277.49 163.26C277.51 185.734 277.503 201.567 277.47 210.76C277.443 217.054 280.25 220.904 285.89 222.31C286.209 222.39 286.534 222.43 286.86 222.43C292.5 222.497 299.817 222.527 308.81 222.52C312.93 222.52 317.06 221.56 318.75 217.88C320.923 213.18 320.167 208.994 316.48 205.32C316.19 205.037 315.839 204.816 315.45 204.67C312.957 203.757 311.303 203.29 310.49 203.27C306.343 203.17 302.93 203.187 300.25 203.32C299.879 203.338 299.509 203.281 299.161 203.152C298.814 203.023 298.496 202.826 298.227 202.571C297.959 202.317 297.746 202.011 297.6 201.672C297.454 201.334 297.379 200.969 297.38 200.6V198.93C297.379 198.323 297.614 197.74 298.034 197.303C298.454 196.867 299.026 196.611 299.63 196.59L309.87 196.2C310.184 196.187 310.487 196.094 310.75 195.93L314.09 193.85C314.287 193.732 314.449 193.563 314.56 193.36C316.227 190.527 316.603 187.8 315.69 185.18C314.663 182.227 312.633 180.52 309.6 180.06C307.413 179.734 304.147 179.64 299.8 179.78C299.49 179.791 299.181 179.739 298.891 179.627C298.602 179.516 298.338 179.346 298.115 179.13C297.892 178.913 297.714 178.654 297.593 178.367C297.472 178.08 297.41 177.772 297.41 177.46V175.83Z" stroke="#DD927E" stroke-width="2"/>
<path d="M365.46 192.29L368.67 189.03C368.763 188.937 368.846 188.833 368.92 188.72C376.63 176.28 373.85 160.97 359.28 155.64C355.873 154.393 351.686 153.76 346.72 153.74C338.87 153.71 330.11 152.51 326.2 159.03C325.2 160.71 324.7 164.053 324.7 169.06C324.68 189.733 324.696 204.37 324.75 212.97C324.763 215.53 325.766 217.91 327.76 220.11C329.5 222.03 331.863 223.01 334.85 223.05C339.21 223.117 342.316 221.317 344.17 217.65C346.33 213.37 345.33 205.85 345.55 200.55C345.559 200.293 345.623 200.039 345.737 199.81C345.85 199.58 346.011 199.38 346.206 199.224C346.401 199.068 346.626 198.961 346.864 198.91C347.102 198.859 347.347 198.866 347.58 198.93C348.433 199.17 348.966 199.93 349.18 201.21C350.67 209.91 356.97 226.54 369.07 222.39C371.663 221.497 373.523 219.857 374.65 217.47C376.63 213.21 375.5 209.03 372.56 205.16C369.48 201.12 366.72 197.49 365.23 193.34C365.164 193.161 365.151 192.968 365.192 192.782C365.232 192.596 365.325 192.425 365.46 192.29Z" stroke="#DD927E" stroke-width="2"/>
<path d="M50.7095 239.37C49.7295 242.11 49.2395 245.33 49.2395 248.94C49.2328 277.714 49.2295 298.377 49.2295 310.93C49.2295 316.62 50.1695 321.09 53.4295 325.08C55.2762 327.34 57.4962 328.87 60.0895 329.67C67.7028 332.004 74.0228 330.51 79.0495 325.19C82.5695 321.47 83.4895 315.65 83.4995 310.75C83.5128 305.764 83.5062 301.147 83.4795 296.9C83.4795 296.683 83.5345 296.469 83.6394 296.278C83.7443 296.088 83.8957 295.927 84.0795 295.81C84.8528 295.31 85.4928 295.127 85.9995 295.26C86.2392 295.323 86.4612 295.439 86.6484 295.601C86.8356 295.762 86.9831 295.964 87.0795 296.19C90.7395 304.644 95.3462 312.46 100.899 319.64C102.339 321.5 103.943 323.19 105.709 324.71C108.583 327.184 110.396 328.57 111.149 328.87C120.523 332.584 128.069 330.637 133.789 323.03C137.436 318.184 138.173 312.857 135.999 307.05C135.239 305.03 133.863 302.817 131.869 300.41C130.436 298.684 128.686 296.674 126.619 294.38C123.393 290.82 119.746 286.324 115.679 280.89C113.739 278.29 113.299 275.79 115.739 273.67C121.693 268.49 126.669 262.82 130.669 256.66C133.759 251.91 135.089 245.7 133.229 240.5C130.909 234.03 125.209 230.09 118.529 229.37C114.619 228.95 110.049 230.2 107.359 232.61C104.699 235.004 102.959 236.854 102.139 238.16C97.8195 245.08 94.4895 250.167 92.1495 253.42C90.2628 256.054 88.7962 257.914 87.7495 259C87.6898 259.06 87.6191 259.114 87.5395 259.16L85.9395 260.08C85.688 260.227 85.4019 260.304 85.1108 260.302C84.8197 260.301 84.5343 260.221 84.2843 260.072C84.0342 259.923 83.8286 259.71 83.6888 259.455C83.5491 259.199 83.4802 258.911 83.4895 258.62C83.7195 250.41 84.3495 241.75 79.1495 235.11C76.8762 232.217 73.9128 230.4 70.2595 229.66C66.5995 228.92 62.9595 229.21 59.3395 230.53C57.5895 231.17 55.5395 232.79 54.0995 233.94C53.8414 234.146 53.6182 234.396 53.4395 234.68C51.8328 237.214 50.9228 238.777 50.7095 239.37Z" stroke="#DD927E" stroke-width="2"/>
<path d="M180.689 246.78C180.689 242.166 178.856 237.74 175.593 234.477C172.33 231.214 167.904 229.38 163.289 229.38H161.969C157.355 229.38 152.929 231.214 149.666 234.477C146.403 237.74 144.569 242.166 144.569 246.78V313.3C144.569 317.915 146.403 322.341 149.666 325.604C152.929 328.867 157.355 330.7 161.969 330.7H163.289C167.904 330.7 172.33 328.867 175.593 325.604C178.856 322.341 180.689 317.915 180.689 313.3V246.78Z" stroke="#DD927E" stroke-width="2"/>
<path d="M229.3 287.95C230.086 288.79 230.74 289.727 231.26 290.76C239.12 306.387 243.706 315.38 245.02 317.74C246.466 320.34 247.946 322.563 249.46 324.41C251.3 326.657 253.38 328.284 255.7 329.29C261.44 331.79 269.4 331.14 274.16 326.78C278.29 322.99 279.92 317.26 279.95 311.75C280.03 296.57 280.026 275.573 279.94 248.76C279.92 244.493 279.376 241.21 278.31 238.91C276.17 234.303 272.966 231.357 268.7 230.07C264.086 228.677 259.683 229.003 255.49 231.05C251.99 232.763 249.423 235.71 247.79 239.89C246.943 242.05 246.533 245.997 246.56 251.73C246.6 260.25 247.08 270.45 246.13 271.86C245.986 272.072 245.795 272.248 245.572 272.373C245.348 272.498 245.099 272.569 244.844 272.58C244.588 272.59 244.335 272.541 244.103 272.435C243.871 272.329 243.668 272.17 243.51 271.97C242.656 270.89 242.033 269.957 241.64 269.17C234.48 254.93 229.916 245.983 227.95 242.33C226.59 239.803 225.083 237.543 223.43 235.55C221.543 233.263 219.42 231.623 217.06 230.63C210.98 228.07 202.81 229.02 198.16 233.82C194.73 237.35 192.94 242.88 192.94 247.76C192.94 282.673 192.936 303.194 192.93 309.32C192.93 317.39 194.01 324.07 200.94 328.42C203.92 330.294 207.436 331.034 211.49 330.64C220.61 329.75 226.36 322.25 226.35 313.26C226.33 300.754 226.333 293.25 226.36 290.75C226.373 289.817 226.433 289.124 226.54 288.67C226.609 288.386 226.754 288.126 226.959 287.917C227.164 287.709 227.422 287.56 227.705 287.486C227.988 287.412 228.285 287.416 228.566 287.498C228.847 287.58 229.1 287.736 229.3 287.95Z" stroke="#DD927E" stroke-width="2"/>
<path d="M371.78 310.25C372.18 309.857 372.553 309.15 372.9 308.13C375.23 301.39 376.47 293.92 374.92 287.25C372.626 277.35 366 271.61 355.04 270.03C350.24 269.337 345.303 269.283 340.23 269.87C337.51 270.19 332.42 272.09 331.17 273.72C327.85 278.1 326.88 282.54 328.26 287.04C329.273 290.327 331.7 292.89 335.54 294.73C337.78 295.8 341.28 295.85 343.94 296.3C344.355 296.371 344.74 296.563 345.046 296.852C345.351 297.14 345.565 297.511 345.66 297.92C346.35 300.89 344.3 301.81 342.27 302.93C341.966 303.095 341.636 303.197 341.3 303.23C334.953 303.837 329.42 302 324.7 297.72C324.388 297.441 324.112 297.122 323.88 296.77C318.97 289.3 317.98 279.51 320.52 271.15C321.486 267.957 323.383 265.11 326.21 262.61C332.6 256.94 341.31 256.26 349.14 260.27C353.66 262.59 358.4 263.74 363.2 261.9C370.63 259.05 373.65 251.16 370.84 243.69C369.893 241.163 368.55 239.267 366.81 238C362.836 235.093 358.576 232.977 354.03 231.65C347.21 229.657 339.85 228.93 331.95 229.47C312.35 230.81 296.58 242.4 290.83 261.34C285.71 278.18 287.37 299.89 298.86 313.89C306.533 323.243 316.66 328.677 329.24 330.19C337.66 331.203 345.46 330.337 352.64 327.59C357.633 325.683 362.303 322.627 366.65 318.42C367.19 317.9 368.813 315.457 371.52 311.09C371.539 311.064 371.55 311.032 371.55 311C371.55 310.993 371.556 310.893 371.57 310.7C371.582 310.527 371.657 310.366 371.78 310.25Z" stroke="#DD927E" stroke-width="2"/>
<path d="M212.379 399.98C244.219 399.98 276.839 399.12 308.459 393.91C324.769 391.23 341.209 386.46 355.189 377.68C362.716 372.947 368.623 366.937 372.909 359.65C375.199 355.77 377.509 346.86 373.469 343.5C371.903 342.2 369.723 341.527 366.929 341.48C355.543 341.32 304.026 341.24 212.379 341.24C120.739 341.24 69.2225 341.324 57.8292 341.49C55.0358 341.53 52.8558 342.2 51.2892 343.5C47.2492 346.86 49.5592 355.77 51.8592 359.65C56.1458 366.937 62.0525 372.947 69.5792 377.68C83.5592 386.46 99.9992 391.23 116.299 393.92C147.929 399.13 180.549 399.98 212.379 399.98Z" stroke="#F2BD93" stroke-width="2"/>
<path d="M67.4893 171.46L67.5093 179.26C67.5093 179.522 67.5607 179.781 67.6607 180.022C67.7607 180.263 67.9073 180.483 68.0921 180.668C68.2769 180.852 68.4963 180.999 68.7377 181.099C68.9792 181.199 69.2379 181.25 69.4993 181.25L71.8493 181.24C72.561 181.239 73.2656 181.098 73.9226 180.825C74.5797 180.552 75.1765 180.152 75.6788 179.649C76.1812 179.146 76.5793 178.548 76.8505 177.892C77.1217 177.235 77.2606 176.531 77.2593 175.82V174.86C77.258 174.15 77.1165 173.447 76.8429 172.791C76.5693 172.135 76.1689 171.539 75.6647 171.038C75.1605 170.536 74.5623 170.139 73.9042 169.868C73.2461 169.598 72.541 169.459 71.8293 169.46L69.4793 169.47C68.9515 169.47 68.4453 169.68 68.0721 170.053C67.6989 170.427 67.4893 170.933 67.4893 171.46Z" stroke="#DD927E" stroke-width="2"/>
<path d="M67.4795 196.19L67.5195 204.67C67.5208 204.963 67.5798 205.253 67.6931 205.523C67.8064 205.793 67.9717 206.038 68.1797 206.244C68.3877 206.45 68.6343 206.613 68.9054 206.724C69.1764 206.835 69.4667 206.892 69.7595 206.89L72.0795 206.87C72.9134 206.866 73.7383 206.699 74.5073 206.377C75.2762 206.055 75.974 205.586 76.5608 204.995C77.1477 204.404 77.6121 203.704 77.9276 202.935C78.2431 202.165 78.4034 201.342 78.3995 200.51V200.23C78.3956 199.399 78.2275 198.577 77.9047 197.81C77.582 197.044 77.1109 196.348 76.5185 195.763C75.926 195.178 75.2238 194.715 74.4519 194.401C73.6799 194.086 72.8534 193.926 72.0195 193.93L69.6995 193.95C69.4067 193.952 69.1169 194.011 68.8469 194.124C68.5768 194.237 68.3317 194.402 68.1256 194.61C67.9194 194.818 67.7563 195.065 67.6454 195.336C67.5346 195.607 67.4782 195.897 67.4795 196.19Z" stroke="#DD927E" stroke-width="2"/>
<path d="M181.77 173.4L181.73 180.86C181.727 181.158 181.783 181.453 181.895 181.729C182.007 182.005 182.172 182.256 182.381 182.468C182.59 182.679 182.839 182.848 183.113 182.963C183.388 183.079 183.682 183.139 183.98 183.14H185.6C187.157 183.148 188.655 182.54 189.763 181.449C190.871 180.357 191.499 178.873 191.51 177.32V177.06C191.515 176.29 191.368 175.526 191.076 174.812C190.785 174.099 190.355 173.449 189.812 172.901C189.269 172.353 188.622 171.917 187.91 171.619C187.197 171.32 186.433 171.164 185.66 171.16H184.04C183.442 171.158 182.868 171.392 182.442 171.812C182.017 172.231 181.775 172.803 181.77 173.4Z" stroke="#DD927E" stroke-width="2"/>
<path d="M344.319 173.45L344.279 180.79C344.277 181.087 344.333 181.38 344.444 181.655C344.555 181.93 344.72 182.18 344.928 182.391C345.136 182.602 345.384 182.769 345.657 182.884C345.93 182.999 346.223 183.059 346.519 183.06L348.579 183.07C349.29 183.074 349.994 182.95 350.652 182.703C351.311 182.457 351.909 182.093 352.414 181.634C352.92 181.174 353.321 180.627 353.597 180.024C353.872 179.421 354.016 178.774 354.019 178.12V176.24C354.027 174.92 353.464 173.65 352.455 172.711C351.446 171.771 350.074 171.239 348.639 171.23L346.579 171.22C345.984 171.218 345.413 171.451 344.989 171.869C344.565 172.287 344.325 172.855 344.319 173.45Z" stroke="#DD927E" stroke-width="2"/>
<path d="M212.31 39.9902C224.55 39.9969 237.276 40.8502 250.49 42.5502C271.816 45.2969 292.066 50.9569 311.24 59.5302C318.24 62.6636 325.796 66.9369 333.91 72.3502C348.48 82.0602 361.96 95.5002 369.87 111.06C373.65 118.48 376.12 127.11 375.39 135.3C375.363 135.605 375.292 135.905 375.18 136.19C373.786 139.73 371.023 141.504 366.89 141.51C354.103 141.537 302.566 141.537 212.28 141.51C121.986 141.484 70.4496 141.454 57.6696 141.42C53.5363 141.407 50.773 139.63 49.3796 136.09C49.2669 135.805 49.1962 135.505 49.1696 135.2C48.4496 127.01 50.9196 118.38 54.7096 110.96C62.6296 95.4102 76.1096 81.9802 90.6896 72.2802C98.8096 66.8669 106.37 62.5969 113.37 59.4702C132.55 50.9102 152.803 45.2636 174.13 42.5302C187.35 40.8369 200.076 39.9902 212.31 39.9902Z" fill="#F08D48"/>
<path d="M269.54 209.98C269.547 210.08 269.554 210.153 269.56 210.2C269.573 210.328 269.543 210.457 269.477 210.569C269.411 210.68 269.31 210.768 269.19 210.82C268.764 211.013 268.51 211.337 268.43 211.79C268.37 212.15 268.16 212.563 267.8 213.03C256.64 227.38 233.16 226 222.15 212.6C218.157 207.747 215.704 202.077 214.79 195.59C213.06 183.22 215.5 169.03 225.39 160.68C230.81 156.1 237.267 153.65 244.76 153.33C247.627 153.203 250.464 153.35 253.27 153.77C258.71 154.59 263.437 156.74 267.45 160.22C267.722 160.452 267.958 160.725 268.15 161.03C272.58 167.97 268.51 176.43 259.94 176.3C257.08 176.26 253.65 173.72 250.76 173.21C243.42 171.93 237.37 176.08 235.58 183.07C234.11 188.81 234.87 199.07 240.8 202.51C243.86 204.29 248.94 205.62 251.95 203.13C252.282 202.855 252.522 202.484 252.638 202.069C252.754 201.653 252.74 201.212 252.598 200.806C252.457 200.399 252.194 200.047 251.846 199.795C251.497 199.544 251.08 199.406 250.65 199.4C249.264 199.373 247.61 199.047 245.69 198.42C245.445 198.341 245.213 198.226 245 198.08C240.707 195.173 239.507 191.29 241.4 186.43C244.46 178.57 259.42 180.72 264.5 183.08C266.314 183.927 268.154 185.643 270.02 188.23C273.71 193.33 272.55 202.54 270.52 208.29C270.429 208.538 270.269 208.753 270.06 208.91C269.994 208.963 269.947 209 269.92 209.02C269.787 209.138 269.683 209.286 269.617 209.453C269.551 209.62 269.525 209.8 269.54 209.98Z" fill="#C5371E"/>
<path d="M90.7996 185.15C90.7297 185.215 90.675 185.295 90.6395 185.384C90.604 185.473 90.5886 185.568 90.5943 185.664C90.6 185.759 90.6268 185.852 90.6726 185.936C90.7185 186.02 90.7824 186.093 90.8596 186.15C94.5796 188.86 97.6696 193.69 98.2296 198.4C98.943 204.486 97.703 209.703 94.5096 214.05C90.6763 219.276 85.2996 222.026 78.3796 222.3C69.7596 222.646 63.2063 222.7 58.7196 222.46C58.3738 222.446 58.0321 222.4 57.6996 222.32C51.8463 220.953 48.933 216.773 48.9596 209.78C49.0396 188.993 49.033 175.156 48.9396 168.27C48.8296 160.14 50.9096 154.5 59.8696 153.94C68.903 153.373 76.1796 153.683 81.6996 154.87C84.2396 155.416 86.803 156.68 89.3896 158.66C91.4963 160.266 93.0863 162.573 94.1596 165.58C96.3596 171.75 95.8696 180.43 90.7996 185.15ZM67.4896 171.46L67.5096 179.26C67.5096 179.521 67.5611 179.78 67.6611 180.021C67.7611 180.263 67.9077 180.482 68.0925 180.667C68.2773 180.852 68.4966 180.998 68.7381 181.098C68.9795 181.198 69.2383 181.25 69.4996 181.25L71.8496 181.24C72.5614 181.238 73.2659 181.097 73.923 180.824C74.5801 180.551 75.1768 180.151 75.6792 179.648C76.1816 179.145 76.5797 178.548 76.8509 177.891C77.122 177.234 77.2609 176.53 77.2596 175.82V174.86C77.2583 174.149 77.1168 173.446 76.8432 172.79C76.5696 172.134 76.1693 171.539 75.6651 171.037C75.1609 170.536 74.5626 170.138 73.9045 169.868C73.2464 169.597 72.5414 169.458 71.8296 169.46L69.4796 169.47C68.9518 169.47 68.4457 169.679 68.0725 170.053C67.6993 170.426 67.4896 170.932 67.4896 171.46ZM67.4796 196.19L67.5196 204.67C67.5209 204.963 67.5799 205.252 67.6932 205.522C67.8065 205.792 67.9718 206.038 68.1798 206.244C68.3878 206.45 68.6344 206.613 68.9055 206.724C69.1765 206.835 69.4668 206.891 69.7596 206.89L72.0796 206.87C72.9135 206.866 73.7385 206.698 74.5074 206.376C75.2763 206.055 75.9741 205.585 76.5609 204.995C77.1478 204.404 77.6122 203.704 77.9277 202.934C78.2432 202.165 78.4036 201.341 78.3996 200.51V200.23C78.3957 199.398 78.2276 198.576 77.9048 197.81C77.5821 197.043 77.111 196.348 76.5186 195.762C75.9262 195.177 75.2239 194.715 74.452 194.4C73.68 194.086 72.8535 193.926 72.0196 193.93L69.6996 193.95C69.4068 193.951 69.117 194.01 68.847 194.123C68.5769 194.237 68.3318 194.402 68.1257 194.61C67.9195 194.818 67.7564 195.065 67.6455 195.336C67.5347 195.607 67.4783 195.897 67.4796 196.19Z" fill="#C5371E"/>
<path d="M129.37 204.54C131.93 204.54 133.84 202.67 134.42 200.36C134.479 200.14 134.509 199.912 134.51 199.68C134.523 179.613 134.523 169.09 134.51 168.11C134.443 164.25 134.767 161.453 135.48 159.72C136.633 156.947 138.667 155.12 141.58 154.24C148.69 152.09 155.26 156.47 155.25 164.03C155.237 176.997 155.257 186.563 155.31 192.73C155.383 201.037 154.87 206.487 153.77 209.08C149.65 218.74 139.66 223.15 129.36 223.15C119.06 223.14 109.07 218.72 104.97 209.04C103.87 206.447 103.363 200.997 103.45 192.69C103.51 186.523 103.543 176.957 103.55 163.99C103.55 156.43 110.13 152.06 117.23 154.22C120.143 155.107 122.177 156.937 123.33 159.71C124.037 161.443 124.357 164.24 124.29 168.1C124.27 169.08 124.253 179.603 124.24 199.67C124.241 199.902 124.271 200.13 124.33 200.35C124.91 202.66 126.81 204.54 129.37 204.54Z" fill="#C5371E"/>
<path d="M202.57 193.31C204.07 197.45 206.84 201.08 209.92 205.12C212.87 208.98 214.01 213.16 212.03 217.42C210.91 219.813 209.053 221.457 206.46 222.35C194.37 226.52 188.04 209.9 186.54 201.2C186.32 199.92 185.783 199.163 184.93 198.93C184.697 198.866 184.453 198.859 184.215 198.91C183.977 198.961 183.752 199.068 183.557 199.224C183.361 199.38 183.201 199.58 183.087 199.81C182.973 200.04 182.91 200.293 182.9 200.55C182.69 205.85 183.71 213.37 181.55 217.65C179.703 221.323 176.6 223.13 172.24 223.07C169.253 223.03 166.89 222.053 165.15 220.14C163.15 217.94 162.14 215.56 162.12 213C162.053 204.4 162.013 189.763 162 169.09C161.993 164.083 162.49 160.74 163.49 159.06C167.39 152.53 176.15 153.72 184 153.73C188.967 153.743 193.153 154.37 196.56 155.61C211.14 160.92 213.95 176.23 206.26 188.68C206.187 188.793 206.103 188.897 206.01 188.99L202.8 192.26C202.666 192.395 202.573 192.566 202.532 192.752C202.491 192.938 202.504 193.131 202.57 193.31ZM181.77 173.4L181.73 180.86C181.727 181.158 181.784 181.453 181.895 181.729C182.007 182.005 182.172 182.256 182.381 182.468C182.59 182.679 182.839 182.848 183.114 182.963C183.388 183.079 183.682 183.139 183.98 183.14H185.6C187.158 183.148 188.655 182.54 189.763 181.449C190.871 180.357 191.5 178.873 191.51 177.32V177.06C191.515 176.29 191.368 175.526 191.077 174.812C190.786 174.099 190.356 173.449 189.813 172.901C189.269 172.353 188.623 171.917 187.91 171.619C187.198 171.32 186.433 171.164 185.66 171.16H184.04C183.442 171.157 182.868 171.392 182.443 171.811C182.017 172.231 181.775 172.802 181.77 173.4Z" fill="#C5371E"/>
<path d="M297.41 175.83V177.46C297.41 177.771 297.472 178.08 297.593 178.367C297.714 178.653 297.892 178.913 298.115 179.129C298.338 179.346 298.602 179.515 298.891 179.627C299.181 179.739 299.49 179.791 299.8 179.78C304.147 179.64 307.413 179.733 309.6 180.06C312.633 180.52 314.663 182.227 315.69 185.18C316.603 187.8 316.227 190.527 314.56 193.36C314.449 193.563 314.287 193.732 314.09 193.85L310.75 195.93C310.487 196.094 310.184 196.187 309.87 196.2L299.63 196.59C299.026 196.611 298.454 196.866 298.034 197.303C297.614 197.74 297.379 198.323 297.38 198.93V200.6C297.379 200.968 297.454 201.333 297.6 201.672C297.746 202.011 297.959 202.316 298.227 202.571C298.496 202.825 298.814 203.023 299.161 203.151C299.509 203.28 299.879 203.338 300.25 203.32C302.93 203.187 306.343 203.17 310.49 203.27C311.303 203.29 312.957 203.757 315.45 204.67C315.839 204.815 316.19 205.036 316.48 205.32C320.167 208.993 320.923 213.18 318.75 217.88C317.06 221.56 312.93 222.52 308.81 222.52C299.817 222.527 292.5 222.497 286.86 222.43C286.534 222.43 286.209 222.39 285.89 222.31C280.25 220.903 277.443 217.053 277.47 210.76C277.503 201.567 277.51 185.733 277.49 163.26C277.49 163.061 277.513 162.863 277.56 162.67C278.973 157.09 282.687 154.17 288.7 153.91C293.007 153.723 299.36 153.673 307.76 153.76C312.85 153.81 318.31 155.3 319.62 160.51C320.487 163.937 319.837 167.07 317.67 169.91C314.53 174.02 307.21 173.34 300.03 173.25C299.687 173.246 299.347 173.31 299.03 173.438C298.712 173.566 298.423 173.755 298.179 173.995C297.935 174.235 297.742 174.521 297.61 174.836C297.478 175.151 297.41 175.489 297.41 175.83Z" fill="#C5371E"/>
<path d="M365.46 192.29C365.325 192.425 365.232 192.596 365.192 192.782C365.151 192.968 365.164 193.161 365.23 193.34C366.72 197.49 369.48 201.12 372.56 205.16C375.5 209.03 376.63 213.21 374.65 217.47C373.523 219.857 371.663 221.497 369.07 222.39C356.97 226.54 350.67 209.91 349.18 201.21C348.966 199.93 348.433 199.17 347.58 198.93C347.347 198.866 347.102 198.859 346.864 198.91C346.626 198.961 346.401 199.068 346.206 199.224C346.011 199.38 345.85 199.58 345.737 199.81C345.623 200.039 345.559 200.293 345.55 200.55C345.33 205.85 346.33 213.37 344.17 217.65C342.316 221.317 339.21 223.117 334.85 223.05C331.863 223.01 329.5 222.03 327.76 220.11C325.766 217.91 324.763 215.53 324.75 212.97C324.696 204.37 324.68 189.733 324.7 169.06C324.7 164.053 325.2 160.71 326.2 159.03C330.11 152.51 338.87 153.71 346.72 153.74C351.686 153.76 355.873 154.393 359.28 155.64C373.85 160.97 376.63 176.28 368.92 188.72C368.846 188.833 368.763 188.937 368.67 189.03L365.46 192.29ZM344.32 173.45L344.28 180.79C344.277 181.086 344.333 181.38 344.444 181.655C344.555 181.93 344.72 182.18 344.928 182.39C345.136 182.601 345.384 182.769 345.657 182.884C345.93 182.999 346.223 183.059 346.52 183.06L348.58 183.07C349.29 183.074 349.995 182.95 350.653 182.703C351.311 182.457 351.909 182.093 352.415 181.633C352.92 181.174 353.322 180.627 353.597 180.024C353.872 179.421 354.016 178.774 354.02 178.12V176.24C354.027 174.92 353.464 173.65 352.456 172.711C351.447 171.771 350.074 171.239 348.64 171.23L346.58 171.22C345.985 171.217 345.413 171.451 344.989 171.868C344.566 172.286 344.325 172.855 344.32 173.45Z" fill="#C5371E"/>
<path d="M50.7105 239.37C50.9238 238.777 51.8338 237.213 53.4405 234.68C53.6192 234.395 53.8423 234.145 54.1005 233.94C55.5405 232.79 57.5905 231.17 59.3405 230.53C62.9605 229.21 66.6005 228.92 70.2605 229.66C73.9138 230.4 76.8771 232.217 79.1505 235.11C84.3505 241.75 83.7205 250.41 83.4905 258.62C83.4812 258.911 83.5501 259.199 83.6898 259.454C83.8296 259.71 84.0352 259.923 84.2852 260.072C84.5353 260.221 84.8207 260.3 85.1118 260.302C85.4028 260.303 85.689 260.227 85.9405 260.08L87.5405 259.16C87.6201 259.114 87.6908 259.06 87.7505 259C88.7971 257.913 90.2638 256.053 92.1505 253.42C94.4905 250.167 97.8205 245.08 102.14 238.16C102.96 236.853 104.7 235.003 107.36 232.61C110.05 230.2 114.62 228.95 118.53 229.37C125.21 230.09 130.91 234.03 133.23 240.5C135.09 245.7 133.76 251.91 130.67 256.66C126.67 262.82 121.694 268.49 115.74 273.67C113.3 275.79 113.74 278.29 115.68 280.89C119.747 286.323 123.394 290.82 126.62 294.38C128.687 296.673 130.437 298.683 131.87 300.41C133.864 302.817 135.24 305.03 136 307.05C138.174 312.857 137.437 318.183 133.79 323.03C128.07 330.637 120.524 332.583 111.15 328.87C110.397 328.57 108.584 327.183 105.71 324.71C103.944 323.19 102.34 321.5 100.9 319.64C95.3471 312.46 90.7405 304.643 87.0805 296.19C86.9841 295.963 86.8366 295.761 86.6494 295.6C86.4622 295.439 86.2401 295.322 86.0005 295.26C85.4938 295.127 84.8538 295.31 84.0805 295.81C83.8967 295.926 83.7453 296.087 83.6404 296.278C83.5355 296.468 83.4805 296.682 83.4805 296.9C83.5071 301.147 83.5138 305.763 83.5005 310.75C83.4905 315.65 82.5705 321.47 79.0505 325.19C74.0238 330.51 67.7038 332.003 60.0905 329.67C57.4971 328.87 55.2771 327.34 53.4305 325.08C50.1705 321.09 49.2305 316.62 49.2305 310.93C49.2305 298.377 49.2338 277.713 49.2405 248.94C49.2405 245.33 49.7305 242.11 50.7105 239.37Z" fill="#C5371E"/>
<path d="M163.29 229.38H161.97C152.361 229.38 144.57 237.17 144.57 246.78V313.3C144.57 322.91 152.361 330.7 161.97 330.7H163.29C172.9 330.7 180.69 322.91 180.69 313.3V246.78C180.69 237.17 172.9 229.38 163.29 229.38Z" fill="#C5371E"/>
<path d="M229.3 287.95C229.1 287.736 228.847 287.58 228.566 287.498C228.285 287.416 227.988 287.412 227.705 287.486C227.422 287.56 227.164 287.709 226.959 287.917C226.754 288.126 226.609 288.386 226.54 288.67C226.433 289.124 226.373 289.817 226.36 290.75C226.333 293.25 226.33 300.754 226.35 313.26C226.36 322.25 220.61 329.75 211.49 330.64C207.436 331.034 203.92 330.294 200.94 328.42C194.01 324.07 192.93 317.39 192.93 309.32C192.936 303.194 192.94 282.673 192.94 247.76C192.94 242.88 194.73 237.35 198.16 233.82C202.81 229.02 210.98 228.07 217.06 230.63C219.42 231.623 221.543 233.263 223.43 235.55C225.083 237.543 226.59 239.803 227.95 242.33C229.916 245.983 234.48 254.93 241.64 269.17C242.033 269.957 242.656 270.89 243.51 271.97C243.668 272.17 243.871 272.329 244.103 272.435C244.335 272.541 244.588 272.59 244.844 272.58C245.099 272.569 245.348 272.498 245.572 272.373C245.795 272.248 245.986 272.072 246.13 271.86C247.08 270.45 246.6 260.25 246.56 251.73C246.533 245.997 246.943 242.05 247.79 239.89C249.423 235.71 251.99 232.763 255.49 231.05C259.683 229.003 264.086 228.677 268.7 230.07C272.966 231.357 276.17 234.303 278.31 238.91C279.376 241.21 279.92 244.493 279.94 248.76C280.026 275.573 280.03 296.57 279.95 311.75C279.92 317.26 278.29 322.99 274.16 326.78C269.4 331.14 261.44 331.79 255.7 329.29C253.38 328.284 251.3 326.657 249.46 324.41C247.946 322.563 246.466 320.34 245.02 317.74C243.706 315.38 239.12 306.387 231.26 290.76C230.74 289.727 230.086 288.79 229.3 287.95Z" fill="#C5371E"/>
<path d="M371.57 310.7C371.556 310.893 371.55 310.993 371.55 311C371.55 311.032 371.539 311.064 371.52 311.09C368.813 315.457 367.19 317.9 366.65 318.42C362.303 322.627 357.633 325.683 352.64 327.59C345.46 330.337 337.66 331.203 329.24 330.19C316.66 328.677 306.533 323.243 298.86 313.89C287.37 299.89 285.71 278.18 290.83 261.34C296.58 242.4 312.35 230.81 331.95 229.47C339.85 228.93 347.21 229.657 354.03 231.65C358.576 232.977 362.836 235.093 366.81 238C368.55 239.267 369.893 241.163 370.84 243.69C373.65 251.16 370.63 259.05 363.2 261.9C358.4 263.74 353.66 262.59 349.14 260.27C341.31 256.26 332.6 256.94 326.21 262.61C323.383 265.11 321.486 267.957 320.52 271.15C317.98 279.51 318.97 289.3 323.88 296.77C324.112 297.122 324.388 297.441 324.7 297.72C329.42 302 334.953 303.837 341.3 303.23C341.636 303.197 341.966 303.095 342.27 302.93C344.3 301.81 346.35 300.89 345.66 297.92C345.565 297.511 345.351 297.14 345.046 296.852C344.74 296.563 344.355 296.371 343.94 296.3C341.28 295.85 337.78 295.8 335.54 294.73C331.7 292.89 329.273 290.327 328.26 287.04C326.88 282.54 327.85 278.1 331.17 273.72C332.42 272.09 337.51 270.19 340.23 269.87C345.303 269.283 350.24 269.337 355.04 270.03C366 271.61 372.626 277.35 374.92 287.25C376.47 293.92 375.23 301.39 372.9 308.13C372.553 309.15 372.18 309.857 371.78 310.25C371.657 310.366 371.582 310.527 371.57 310.7Z" fill="#C5371E"/>
<path d="M212.38 341.24C304.027 341.24 355.543 341.32 366.93 341.48C369.723 341.527 371.903 342.2 373.47 343.5C377.51 346.86 375.2 355.77 372.91 359.65C368.623 366.937 362.717 372.947 355.19 377.68C341.21 386.46 324.77 391.23 308.46 393.91C276.84 399.12 244.22 399.98 212.38 399.98C180.55 399.98 147.93 399.13 116.3 393.92C100 391.23 83.5601 386.46 69.5801 377.68C62.0535 372.947 56.1468 366.937 51.8601 359.65C49.5601 355.77 47.2501 346.86 51.2901 343.5C52.8568 342.2 55.0368 341.53 57.8301 341.49C69.2235 341.324 120.74 341.24 212.38 341.24Z" fill="#F08D48"/>
</svg>
